<?xml version="1.0" encoding="UTF-8"?>
<svg width="18px" height="18px" viewBox="0 0 18 18" version="1.1" xmlns="http://www.w3.org/2000/svg" xmlns:xlink="http://www.w3.org/1999/xlink">
    <g id="Page-1">
        <path d="M8,0.260551704 C8.24876605,0.260551704 8.48860083,0.35327348 8.67267279,0.520611631 L17.1860659,8.26005993 C17.5947235,8.63156685 17.6248401,9.26401518 17.2533332,9.67267279 C17.2319906,9.69614965 17.2095428,9.71859747 17.1860659,9.73994007 L8.67267279,17.4793884 C8.26401518,17.8508953 7.63156685,17.8207787 7.26005993,17.4121211 C7.09272178,17.2280491 7,16.9882143 7,16.7394483 L6.999,12.9995517 L1,13 C0.44771525,13 -5.9849844e-16,12.5522847 0,12 L0,6 C-6.76353751e-17,5.44771525 0.44771525,5 1,5 L6.999,4.9995517 L7,1.2605517 C7,0.708266954 7.44771525,0.260551704 8,0.260551704 Z" id="Combined-Shape" fill="#202020"></path>
    </g>
</svg>